<svg width="253" height="45" viewBox="0 0 253 45" fill="none" xmlns="http://www.w3.org/2000/svg">
<path d="M17.1187 0.25C17.9521 0.25 18.7958 0.291667 19.65 0.375C20.5042 0.458333 21.275 0.65625 21.9625 0.96875C22.65 1.28125 23.2125 1.75 23.65 2.375C24.0875 2.97917 24.3062 3.8125 24.3062 4.875C24.3062 5.9375 24.0875 6.78125 23.65 7.40625C23.2125 8.01042 22.65 8.46875 21.9625 8.78125C21.275 9.09375 20.5042 9.29167 19.65 9.375C18.7958 9.45833 17.9521 9.5 17.1187 9.5H9.68124V17.625H13.6187C14.4312 17.625 15.2646 17.6562 16.1187 17.7188C16.9729 17.7812 17.7437 17.9583 18.4312 18.25C19.1187 18.5417 19.6812 19 20.1187 19.625C20.5771 20.25 20.8062 21.125 20.8062 22.25C20.8062 23.375 20.5875 24.25 20.15 24.875C19.7125 25.5 19.15 25.9583 18.4625 26.25C17.775 26.5417 17.0042 26.7188 16.15 26.7812C15.2958 26.8438 14.4521 26.875 13.6187 26.875H9.68124V36.8125C9.68124 37.7292 9.64999 38.6146 9.58749 39.4688C9.54583 40.3229 9.36874 41.0938 9.05624 41.7812C8.76458 42.4479 8.29583 42.9896 7.64999 43.4062C7.00416 43.8021 6.09791 44 4.93124 44C3.74374 44 2.82708 43.8021 2.18124 43.4062C1.53541 42.9896 1.06666 42.4479 0.774994 41.7812C0.483327 41.0938 0.306244 40.3229 0.243744 39.4688C0.202077 38.6146 0.181244 37.7292 0.181244 36.8125V7.4375C0.181244 6.54167 0.202077 5.66667 0.243744 4.8125C0.306244 3.95833 0.483327 3.19792 0.774994 2.53125C1.06666 1.84375 1.53541 1.29167 2.18124 0.875C2.82708 0.458333 3.74374 0.25 4.93124 0.25H17.1187ZM45.9812 17.4375C45.9812 19.0625 45.575 20.25 44.7625 21C43.9708 21.75 42.8354 22.125 41.3562 22.125C41.1479 22.125 40.8458 22.1458 40.45 22.1875C40.075 22.2083 39.6687 22.2917 39.2312 22.4375C38.7937 22.5625 38.3458 22.7604 37.8875 23.0312C37.45 23.2812 37.0437 23.6354 36.6687 24.0938C36.2937 24.5312 35.9917 25.0938 35.7625 25.7812C35.5333 26.4688 35.4187 27.2917 35.4187 28.25V37.1875C35.4187 38.0417 35.3667 38.875 35.2625 39.6875C35.1792 40.5 34.9708 41.2292 34.6375 41.875C34.3042 42.5 33.825 43.0104 33.2 43.4062C32.575 43.8021 31.7312 44 30.6687 44C29.6271 44 28.8042 43.8021 28.2 43.4062C27.5958 43.0104 27.1271 42.5 26.7937 41.875C26.4812 41.2292 26.2729 40.5 26.1687 39.6875C26.0854 38.875 26.0437 38.0417 26.0437 37.1875V19.6875C26.0437 18.8125 26.0854 17.9688 26.1687 17.1562C26.2729 16.3229 26.4812 15.5833 26.7937 14.9375C27.1271 14.2917 27.5958 13.7812 28.2 13.4062C28.8042 13.0104 29.6271 12.8125 30.6687 12.8125C31.7312 12.8125 32.5437 13.0521 33.1062 13.5312C33.6896 13.9896 34.1167 14.5938 34.3875 15.3438C34.6583 16.0729 34.8146 16.8958 34.8562 17.8125C34.8979 18.7083 34.9187 19.5833 34.9187 20.4375H35.4187C35.7104 19.2708 36.0958 18.2188 36.575 17.2812C37.0542 16.3229 37.5854 15.5208 38.1687 14.875C38.7521 14.2083 39.3771 13.6979 40.0437 13.3438C40.7104 12.9896 41.3771 12.8125 42.0437 12.8125C42.8562 12.8125 43.5125 12.9062 44.0125 13.0938C44.5333 13.2604 44.9396 13.5312 45.2312 13.9062C45.5229 14.2812 45.7208 14.7604 45.825 15.3438C45.9292 15.9271 45.9812 16.625 45.9812 17.4375ZM72.7187 26.1875C72.7187 26.5208 72.6979 26.9167 72.6562 27.375C72.6146 27.8125 72.4479 28.2396 72.1562 28.6562C71.8854 29.0521 71.4479 29.3958 70.8437 29.6875C70.2396 29.9792 69.3854 30.125 68.2812 30.125H55.8437V33.125C55.8437 33.625 55.9062 34.1458 56.0312 34.6875C56.1562 35.2292 56.3646 35.7292 56.6562 36.1875C56.9687 36.6458 57.375 37.0208 57.875 37.3125C58.375 37.6042 58.9896 37.75 59.7187 37.75C60.5521 37.75 61.1875 37.6562 61.625 37.4688C62.0833 37.2604 62.4375 37.0104 62.6875 36.7188C62.9583 36.4271 63.1979 36.1146 63.4062 35.7812C63.6146 35.4479 63.8854 35.1354 64.2187 34.8438C64.5729 34.5521 65.0521 34.3125 65.6562 34.125C66.2812 33.9167 67.1354 33.8125 68.2187 33.8125C68.7396 33.8125 69.2396 33.8542 69.7187 33.9375C70.2187 34.0208 70.6562 34.1771 71.0312 34.4062C71.4062 34.6354 71.7083 34.9583 71.9375 35.375C72.1667 35.7708 72.2812 36.2917 72.2812 36.9375C72.2812 38.2917 71.8542 39.4271 71 40.3438C70.1458 41.2396 69.0729 41.9583 67.7812 42.5C66.4896 43.0417 65.0833 43.4271 63.5625 43.6562C62.0625 43.8854 60.6562 44 59.3437 44C57.6146 43.9792 55.9687 43.7604 54.4062 43.3438C52.8437 42.9271 51.4583 42.2604 50.25 41.3438C49.0625 40.4271 48.1146 39.2292 47.4062 37.75C46.6979 36.2708 46.3437 34.4583 46.3437 32.3125V25C46.3437 23.0208 46.5729 21.3438 47.0312 19.9688C47.5104 18.5938 48.125 17.4479 48.875 16.5312C49.625 15.6146 50.4687 14.9062 51.4062 14.4062C52.3437 13.8854 53.2917 13.5 54.25 13.25C55.2083 13 56.1146 12.8438 56.9687 12.7812C57.8437 12.7188 58.5937 12.6875 59.2187 12.6875C61.3229 12.6875 63.1146 12.875 64.5937 13.25C66.0937 13.625 67.3437 14.1146 68.3437 14.7188C69.3437 15.3229 70.1354 16.0208 70.7187 16.8125C71.3021 17.6042 71.7396 18.4271 72.0312 19.2812C72.3229 20.1146 72.5104 20.9688 72.5937 21.8438C72.6771 22.6979 72.7187 23.5 72.7187 24.25V26.1875ZM55.8437 25.4375H63.6562C63.6562 24.4583 63.625 23.5938 63.5625 22.8438C63.5208 22.0729 63.3646 21.4271 63.0937 20.9062C62.8437 20.3854 62.4375 19.9896 61.875 19.7188C61.3333 19.4479 60.5521 19.3125 59.5312 19.3125C58.6771 19.3125 58 19.4479 57.5 19.7188C57.0208 19.9896 56.6562 20.3333 56.4062 20.75C56.1562 21.1458 56 21.5729 55.9375 22.0312C55.875 22.4896 55.8437 22.8958 55.8437 23.25V25.4375ZM84.2062 20.9375C84.2062 21.3542 84.3417 21.7396 84.6125 22.0938C84.8833 22.4479 85.2479 22.7917 85.7062 23.125C86.1854 23.4375 86.7271 23.75 87.3312 24.0625C87.9562 24.375 88.6021 24.6875 89.2687 25C90.2896 25.5 91.3312 26.0417 92.3937 26.625C93.4562 27.1875 94.425 27.8542 95.3 28.625C96.175 29.3958 96.8833 30.2917 97.425 31.3125C97.9875 32.3125 98.2687 33.5 98.2687 34.875C98.2687 36.125 98.0812 37.2292 97.7062 38.1875C97.3521 39.1458 96.8729 39.9792 96.2687 40.6875C95.6646 41.375 94.9562 41.9479 94.1437 42.4062C93.3521 42.8646 92.5083 43.2292 91.6125 43.5C90.7375 43.7708 89.8417 43.9583 88.925 44.0625C88.0083 44.1875 87.1437 44.25 86.3312 44.25C84.7271 44.25 83.3312 44.1146 82.1437 43.8438C80.9562 43.5729 79.9354 43.2188 79.0812 42.7812C78.2271 42.3229 77.5187 41.8125 76.9562 41.25C76.4146 40.6667 75.9875 40.0625 75.675 39.4375C75.3625 38.8125 75.1437 38.1979 75.0187 37.5938C74.8937 36.9688 74.8312 36.3958 74.8312 35.875C74.8312 34.625 75.175 33.7083 75.8625 33.125C76.5708 32.5417 77.6437 32.25 79.0812 32.25C80.1229 32.25 80.9771 32.5312 81.6437 33.0938C82.3104 33.6562 82.6646 34.5625 82.7062 35.8125C82.7271 36.2292 82.8417 36.5625 83.05 36.8125C83.2792 37.0625 83.5604 37.2708 83.8937 37.4375C84.2479 37.5833 84.6333 37.6875 85.05 37.75C85.4667 37.7917 85.8729 37.8125 86.2687 37.8125C87.0812 37.8125 87.7375 37.6042 88.2375 37.1875C88.7583 36.75 89.0187 36.1875 89.0187 35.5C89.0187 34.9167 88.8417 34.375 88.4875 33.875C88.1542 33.3542 87.7062 32.875 87.1437 32.4375C86.5812 32 85.9354 31.5833 85.2062 31.1875C84.4979 30.7708 83.7687 30.3542 83.0187 29.9375C82.0812 29.4375 81.1333 28.9062 80.175 28.3438C79.2375 27.7812 78.3833 27.1562 77.6125 26.4688C76.8417 25.7812 76.2167 25.0104 75.7375 24.1562C75.2583 23.2812 75.0187 22.2917 75.0187 21.1875C75.0187 19.5625 75.2792 18.2083 75.8 17.125C76.3417 16.0208 77.1229 15.1354 78.1437 14.4688C79.1646 13.7812 80.4042 13.2917 81.8625 13C83.3417 12.7083 85.0187 12.5417 86.8937 12.5H87.3937C89.0812 12.5 90.5083 12.6458 91.675 12.9375C92.8625 13.2292 93.8417 13.6146 94.6125 14.0938C95.4042 14.5521 96.0187 15.0729 96.4562 15.6562C96.9146 16.2396 97.2479 16.8333 97.4562 17.4375C97.6854 18.0208 97.8208 18.5833 97.8625 19.125C97.925 19.6667 97.9562 20.125 97.9562 20.5C97.9562 21.125 97.8208 21.6458 97.55 22.0625C97.3 22.4583 96.9562 22.7812 96.5187 23.0312C96.1021 23.2604 95.6229 23.4271 95.0812 23.5312C94.5396 23.6146 93.9771 23.6667 93.3937 23.6875C92.8937 23.6875 92.4354 23.6042 92.0187 23.4375C91.6229 23.2708 91.2792 23.0625 90.9875 22.8125C90.6958 22.5625 90.4667 22.2812 90.3 21.9688C90.1542 21.6562 90.0812 21.3542 90.0812 21.0625C90.0396 20.2708 89.7167 19.6667 89.1125 19.25C88.5292 18.8333 87.8104 18.625 86.9562 18.625C86.6021 18.625 86.2583 18.6667 85.925 18.75C85.6125 18.8125 85.3208 18.9375 85.05 19.125C84.8 19.2917 84.5917 19.5208 84.425 19.8125C84.2792 20.1042 84.2062 20.4792 84.2062 20.9375ZM127.256 36.9375C127.256 37.8125 127.204 38.6771 127.1 39.5312C127.017 40.3646 126.808 41.1146 126.475 41.7812C126.162 42.4479 125.694 42.9896 125.069 43.4062C124.444 43.8021 123.59 44 122.506 44C121.423 44 120.558 43.8021 119.912 43.4062C119.287 42.9896 118.798 42.4479 118.444 41.7812C118.11 41.1146 117.892 40.3646 117.787 39.5312C117.683 38.6771 117.631 37.8125 117.631 36.9375V24.625C117.631 24.0833 117.61 23.5521 117.569 23.0312C117.527 22.4896 117.412 22.0104 117.225 21.5938C117.037 21.1771 116.756 20.8438 116.381 20.5938C116.027 20.3229 115.527 20.1875 114.881 20.1875C114.048 20.1875 113.371 20.4688 112.85 21.0312C112.329 21.5729 111.912 22.3333 111.6 23.3125C111.308 24.2708 111.1 25.4167 110.975 26.75C110.871 28.0625 110.819 29.4792 110.819 31V36.9375C110.819 37.8125 110.767 38.6771 110.662 39.5312C110.579 40.3646 110.371 41.1146 110.037 41.7812C109.704 42.4479 109.215 42.9896 108.569 43.4062C107.923 43.8021 107.048 44 105.944 44C104.86 44 104.006 43.8021 103.381 43.4062C102.756 42.9896 102.277 42.4479 101.944 41.7812C101.631 41.1146 101.423 40.3646 101.319 39.5312C101.235 38.6771 101.194 37.8125 101.194 36.9375V7.3125C101.194 6.4375 101.235 5.58333 101.319 4.75C101.423 3.89583 101.631 3.13542 101.944 2.46875C102.277 1.80208 102.756 1.27083 103.381 0.875C104.006 0.458333 104.86 0.25 105.944 0.25C107.048 0.25 107.923 0.458333 108.569 0.875C109.215 1.27083 109.704 1.80208 110.037 2.46875C110.371 3.13542 110.579 3.89583 110.662 4.75C110.767 5.58333 110.819 6.4375 110.819 7.3125V18C111.006 17.3958 111.277 16.7812 111.631 16.1562C111.985 15.5312 112.444 14.9688 113.006 14.4688C113.569 13.9688 114.225 13.5625 114.975 13.25C115.746 12.9167 116.631 12.75 117.631 12.75C118.777 12.75 119.923 12.9479 121.069 13.3438C122.235 13.7188 123.267 14.3438 124.162 15.2188C125.079 16.0938 125.819 17.25 126.381 18.6875C126.965 20.1042 127.256 21.8542 127.256 23.9375V36.9375Z" fill="#006838"/>
<path d="M162.419 26.75V36.875C162.419 37.7708 162.387 38.6458 162.325 39.5C162.283 40.3542 162.106 41.1146 161.794 41.7812C161.502 42.4479 161.033 42.9896 160.387 43.4062C159.742 43.8021 158.815 44 157.606 44C156.44 44 155.533 43.8021 154.887 43.4062C154.262 42.9896 153.804 42.4479 153.512 41.7812C153.221 41.1146 153.044 40.3542 152.981 39.5C152.94 38.6458 152.919 37.7708 152.919 36.875V7.375C152.919 6.47917 152.94 5.60417 152.981 4.75C153.044 3.89583 153.221 3.13542 153.512 2.46875C153.804 1.80208 154.262 1.27083 154.887 0.875C155.533 0.458333 156.44 0.25 157.606 0.25H167.919C170.502 0.375 172.815 0.916667 174.856 1.875C175.731 2.29167 176.575 2.8125 177.387 3.4375C178.221 4.0625 178.96 4.83333 179.606 5.75C180.273 6.64583 180.804 7.71875 181.2 8.96875C181.596 10.1979 181.794 11.625 181.794 13.25C181.794 15.4792 181.44 17.4375 180.731 19.125C180.044 20.7917 179.033 22.1979 177.7 23.3438C176.387 24.4688 174.773 25.3229 172.856 25.9062C170.96 26.4688 168.815 26.75 166.419 26.75H162.419ZM166.669 19.3125C167.71 19.25 168.648 19 169.481 18.5625C169.835 18.375 170.179 18.1354 170.512 17.8438C170.846 17.5521 171.148 17.1979 171.419 16.7812C171.69 16.3438 171.898 15.8333 172.044 15.25C172.21 14.6667 172.294 14 172.294 13.25C172.294 12.5417 172.21 11.9271 172.044 11.4062C171.898 10.8646 171.7 10.4062 171.45 10.0312C171.2 9.63542 170.919 9.30208 170.606 9.03125C170.294 8.76042 169.971 8.53125 169.637 8.34375C168.846 7.94792 167.96 7.70833 166.981 7.625H162.419V19.3125H166.669ZM183.906 19.75C183.906 18.875 183.948 18.0208 184.031 17.1875C184.135 16.3542 184.354 15.6146 184.688 14.9688C185.021 14.3021 185.5 13.7708 186.125 13.375C186.75 12.9583 187.594 12.75 188.656 12.75C189.719 12.75 190.562 12.9583 191.188 13.375C191.812 13.7708 192.292 14.3021 192.625 14.9688C192.958 15.6146 193.167 16.3542 193.25 17.1875C193.354 18.0208 193.406 18.875 193.406 19.75V37C193.406 37.875 193.354 38.7396 193.25 39.5938C193.167 40.4271 192.958 41.1771 192.625 41.8438C192.292 42.4896 191.812 43.0104 191.188 43.4062C190.562 43.8021 189.719 44 188.656 44C187.594 44 186.75 43.8021 186.125 43.4062C185.5 43.0104 185.021 42.4896 184.688 41.8438C184.354 41.1771 184.135 40.4271 184.031 39.5938C183.948 38.7396 183.906 37.875 183.906 37V19.75ZM193.469 5C193.469 6.60417 193.052 7.80208 192.219 8.59375C191.385 9.36458 190.219 9.75 188.719 9.75C187.219 9.75 186.052 9.36458 185.219 8.59375C184.385 7.80208 183.969 6.60417 183.969 5C183.969 3.33333 184.385 2.125 185.219 1.375C186.052 0.625 187.219 0.25 188.719 0.25C190.323 0.25 191.51 0.625 192.281 1.375C193.073 2.125 193.469 3.33333 193.469 5ZM207.581 33.1875C207.581 33.5208 207.612 33.9479 207.675 34.4688C207.737 34.9688 207.883 35.4688 208.112 35.9688C208.342 36.4479 208.675 36.8646 209.112 37.2188C209.571 37.5729 210.185 37.75 210.956 37.75C211.873 37.75 212.592 37.6458 213.112 37.4375C213.633 37.2292 214.019 36.9479 214.269 36.5938C214.519 36.2188 214.675 35.7917 214.737 35.3125C214.8 34.8125 214.831 34.2917 214.831 33.75C214.831 33.4792 214.873 33.1771 214.956 32.8438C215.06 32.4896 215.29 32.1667 215.644 31.875C215.998 31.5625 216.519 31.3125 217.206 31.125C217.915 30.9167 218.873 30.8125 220.081 30.8125C221.185 30.8125 222.04 30.9375 222.644 31.1875C223.248 31.4375 223.685 31.7396 223.956 32.0938C224.248 32.4271 224.415 32.7812 224.456 33.1562C224.498 33.5104 224.519 33.7917 224.519 34C224.519 35.3333 224.31 36.5104 223.894 37.5312C223.498 38.5312 222.956 39.4062 222.269 40.1562C221.581 40.8854 220.79 41.5 219.894 42C218.998 42.5 218.04 42.8958 217.019 43.1875C216.019 43.4792 214.998 43.6875 213.956 43.8125C212.915 43.9375 211.915 44 210.956 44C209.31 44 207.717 43.7812 206.175 43.3438C204.633 42.9062 203.258 42.2188 202.05 41.2812C200.862 40.3438 199.904 39.1458 199.175 37.6875C198.446 36.2083 198.081 34.4375 198.081 32.375V25.0625C198.081 23.0833 198.31 21.4062 198.769 20.0312C199.248 18.6562 199.862 17.5104 200.612 16.5938C201.362 15.6771 202.206 14.9688 203.144 14.4688C204.081 13.9479 205.029 13.5625 205.987 13.3125C206.946 13.0625 207.852 12.9062 208.706 12.8438C209.581 12.7812 210.331 12.75 210.956 12.75C212.81 12.75 214.425 12.9062 215.8 13.2188C217.196 13.5312 218.394 13.9479 219.394 14.4688C220.394 14.9896 221.217 15.5938 221.862 16.2812C222.529 16.9479 223.05 17.6562 223.425 18.4062C223.8 19.1562 224.06 19.9062 224.206 20.6562C224.373 21.4062 224.456 22.1042 224.456 22.75C224.456 23.0833 224.435 23.4792 224.394 23.9375C224.352 24.375 224.185 24.8021 223.894 25.2188C223.623 25.6146 223.185 25.9583 222.581 26.25C221.977 26.5417 221.123 26.6875 220.019 26.6875C219.623 26.6875 219.123 26.6771 218.519 26.6562C217.935 26.6146 217.362 26.5 216.8 26.3125C216.237 26.125 215.758 25.8333 215.362 25.4375C214.967 25.0417 214.769 24.4792 214.769 23.75C214.769 23.25 214.737 22.7708 214.675 22.3125C214.633 21.8333 214.487 21.4167 214.237 21.0625C213.987 20.7083 213.602 20.4271 213.081 20.2188C212.581 19.9896 211.873 19.875 210.956 19.875C210.185 19.875 209.571 20 209.112 20.25C208.675 20.5 208.342 20.8125 208.112 21.1875C207.883 21.5625 207.737 21.9583 207.675 22.375C207.612 22.7917 207.581 23.1667 207.581 23.5V33.1875ZM228.194 7.1875C228.194 6.3125 228.225 5.45833 228.287 4.625C228.35 3.79167 228.527 3.05208 228.819 2.40625C229.11 1.76042 229.548 1.23958 230.131 0.84375C230.735 0.447917 231.569 0.25 232.631 0.25C233.715 0.25 234.548 0.447917 235.131 0.84375C235.735 1.23958 236.173 1.76042 236.444 2.40625C236.735 3.05208 236.912 3.79167 236.975 4.625C237.037 5.45833 237.069 6.3125 237.069 7.1875V19.5H237.569L244.006 11.9375C244.381 11.5 244.819 11.1875 245.319 11C245.819 10.7917 246.34 10.6875 246.881 10.6875C247.402 10.6875 247.923 10.7917 248.444 11C248.985 11.1875 249.454 11.4688 249.85 11.8438C250.267 12.1979 250.6 12.6354 250.85 13.1562C251.121 13.6562 251.256 14.2292 251.256 14.875C251.256 15.7083 250.965 16.4792 250.381 17.1875L244.756 23.8125L250.881 35.5C251.256 36.25 251.579 37.0104 251.85 37.7812C252.121 38.5312 252.256 39.25 252.256 39.9375C252.256 40.6042 252.11 41.1979 251.819 41.7188C251.527 42.2396 251.142 42.6771 250.662 43.0312C250.204 43.3646 249.683 43.625 249.1 43.8125C248.537 43.9792 247.985 44.0625 247.444 44.0625C246.756 44.0625 246.142 43.8958 245.6 43.5625C245.058 43.2292 244.579 42.8229 244.162 42.3438C243.767 41.8438 243.412 41.3125 243.1 40.75C242.787 40.1875 242.527 39.6667 242.319 39.1875L238.819 31.75H237.069V37C237.069 37.875 237.037 38.7396 236.975 39.5938C236.912 40.4271 236.735 41.1771 236.444 41.8438C236.173 42.4896 235.735 43.0104 235.131 43.4062C234.548 43.8021 233.715 44 232.631 44C231.569 44 230.735 43.8021 230.131 43.4062C229.548 43.0104 229.11 42.4896 228.819 41.8438C228.527 41.1771 228.35 40.4271 228.287 39.5938C228.225 38.7396 228.194 37.875 228.194 37V7.1875Z" fill="#FF914D"/>
</svg>
