<svg width="512" height="512" viewBox="0 0 512 512" fill="none" xmlns="http://www.w3.org/2000/svg">
<rect width="512" height="512" fill="#F3F4F6"/>
<path d="M248.839 226.205H233.887V191.317H223.92V226.205H208.968V191.317H199V229.942C199 244.117 209.795 255.919 223.92 258.2V323.391H233.887V258.2C248.012 255.919 258.807 244.117 258.807 229.942V191.317H248.839V226.205ZM228.904 248.632C220.241 248.632 212.854 243.423 210.111 236.172H247.696C244.953 243.423 237.567 248.632 228.904 248.632Z" fill="#E2E3E6"/>
<path d="M307.888 188.883C297.692 190.452 288.394 195.619 281.677 203.448C274.959 211.278 271.267 221.253 271.267 231.57V283.52H303.662V323.391H313.63V188L307.888 188.883ZM303.662 273.552H281.235V231.57C281.201 224.639 283.348 217.874 287.374 212.232C291.399 206.591 297.098 202.359 303.662 200.136V273.552Z" fill="#E2E3E6"/>
</svg>
